<svg version="1.1" xmlns="http://www.w3.org/2000/svg" viewBox="0 0 727.7722511129045 1181.6867629713151" width="1455.544502225809" height="2363.3735259426303">
  <!-- svg-source:excalidraw -->
  
  <defs>
    <style>
      @font-face {
        font-family: "Virgil";
        src: url("https://excalidraw.com/Virgil.woff2");
      }
      @font-face {
        font-family: "Cascadia";
        src: url("https://excalidraw.com/Cascadia.woff2");
      }
    </style>
  </defs>
  <rect x="0" y="0" width="727.7722511129045" height="1181.6867629713151" fill="#ffffff"></rect><g stroke-linecap="round" transform="translate(10 89.90330987359269) rotate(0 122.88267989501321 24.760740021889006)"><path d="M0 0 L245.77 0 L245.77 49.52 L0 49.52" stroke="none" stroke-width="0" fill="#2f3e51"></path><path d="M0 0 C77.62 0, 155.24 0, 245.77 0 M0 0 C75.95 0, 151.9 0, 245.77 0 M245.77 0 C245.77 17.92, 245.77 35.85, 245.77 49.52 M245.77 0 C245.77 11.05, 245.77 22.09, 245.77 49.52 M245.77 49.52 C185 49.52, 124.23 49.52, 0 49.52 M245.77 49.52 C179.1 49.52, 112.43 49.52, 0 49.52 M0 49.52 C0 30.47, 0 11.41, 0 0 M0 49.52 C0 31.22, 0 12.92, 0 0" stroke="#2f3e51" stroke-width="1" fill="none"></path></g><g transform="translate(38.90481078995845 10) rotate(0 77.59168247092725 43.10649026162626)"><text x="0" y="59.212980523252526" font-family="Virgil, Segoe UI Emoji" font-size="68.97038441860205px" fill="#343a40" text-anchor="start" style="white-space: pre;" direction="ltr">1945</text></g><g transform="translate(48.717054068894186 165.08753657575446) rotate(0 126 101.5)"><text x="0" y="15.555555555555557" font-family="Virgil, Segoe UI Emoji" font-size="17.837033422296486px" fill="#000000" text-anchor="start" style="white-space: pre;" direction="ltr">Lorem ipsum dolor sit amet, </text><text x="0" y="38.111111111111114" font-family="Virgil, Segoe UI Emoji" font-size="17.837033422296486px" fill="#000000" text-anchor="start" style="white-space: pre;" direction="ltr">consectetur adipiscing elit. </text><text x="0" y="60.66666666666667" font-family="Virgil, Segoe UI Emoji" font-size="17.837033422296486px" fill="#000000" text-anchor="start" style="white-space: pre;" direction="ltr">Maecenas dolor metus, </text><text x="0" y="83.22222222222223" font-family="Virgil, Segoe UI Emoji" font-size="17.837033422296486px" fill="#000000" text-anchor="start" style="white-space: pre;" direction="ltr">ornare ac mattis in</text><text x="0" y="105.77777777777779" font-family="Virgil, Segoe UI Emoji" font-size="17.837033422296486px" fill="#000000" text-anchor="start" style="white-space: pre;" direction="ltr">Lorem ipsum dolor sit amet, </text><text x="0" y="128.33333333333334" font-family="Virgil, Segoe UI Emoji" font-size="17.837033422296486px" fill="#000000" text-anchor="start" style="white-space: pre;" direction="ltr">consectetur adipiscing elit. </text><text x="0" y="150.8888888888889" font-family="Virgil, Segoe UI Emoji" font-size="17.837033422296486px" fill="#000000" text-anchor="start" style="white-space: pre;" direction="ltr">Maecenas dolor metus, </text><text x="0" y="173.44444444444446" font-family="Virgil, Segoe UI Emoji" font-size="17.837033422296486px" fill="#000000" text-anchor="start" style="white-space: pre;" direction="ltr">ornare ac mattis in </text><text x="0" y="196" font-family="Virgil, Segoe UI Emoji" font-size="17.837033422296486px" fill="#000000" text-anchor="start" style="white-space: pre;" direction="ltr"></text></g><g stroke-linecap="round" transform="translate(460.56505417541666 52.216542423001584) rotate(0 106.64698632717955 136.61626696225755)"><path d="M0 0 C77.03 0, 154.07 0, 213.29 0 M0 0 C66.32 0, 132.65 0, 213.29 0 M213.29 0 C213.29 83.7, 213.29 167.4, 213.29 273.23 M213.29 0 C213.29 72.27, 213.29 144.53, 213.29 273.23 M213.29 273.23 C145.05 273.23, 76.81 273.23, 0 273.23 M213.29 273.23 C134.48 273.23, 55.66 273.23, 0 273.23 M0 273.23 C0 204.04, 0 134.85, 0 0 M0 273.23 C0 180.04, 0 86.84, 0 0" stroke="#343a40" stroke-width="1" fill="none"></path></g><g stroke-linecap="round" transform="translate(538.2367979194296 138.62388724880262) rotate(0 27.301056690180303 25.128016313117485)"><path d="M28.17 0.9 C33.82 0.55, 40.56 2.1, 44.93 5.47 C49.31 8.85, 53.34 15.67, 54.41 21.16 C55.48 26.64, 54.45 33.89, 51.34 38.39 C48.24 42.89, 41.39 46.5, 35.77 48.14 C30.15 49.77, 23.1 49.85, 17.65 48.2 C12.19 46.56, 5.74 42.9, 3.04 38.27 C0.34 33.64, 0.28 25.91, 1.44 20.43 C2.6 14.96, 5 8.89, 10 5.43 C15 1.98, 27.37 0.45, 31.43 -0.3 C35.5 -1.04, 34.44 0.34, 34.37 0.97 M23.33 -0.52 C28.74 -1.86, 34.46 0.95, 39.39 3.82 C44.32 6.69, 50.64 12.08, 52.92 16.72 C55.2 21.36, 54.74 26.61, 53.07 31.67 C51.39 36.74, 48 43.85, 42.86 47.12 C37.72 50.38, 28.14 52.1, 22.24 51.26 C16.35 50.42, 11.01 46.11, 7.48 42.1 C3.96 38.09, 1.14 32.72, 1.09 27.21 C1.04 21.7, 3.71 13.33, 7.17 9.05 C10.63 4.76, 19.19 2.62, 21.85 1.49 C24.52 0.37, 23.15 2.15, 23.17 2.32" stroke="#000000" stroke-width="2" fill="none"></path></g><g stroke-linecap="round"><g transform="translate(562.554397997807 188.70475715166504) rotate(0 -0.9487945086505079 30.67051841178565)"><path d="M-0.37 0.03 C-1.09 10.12, -3.26 50.52, -3.53 60.85 M1.64 -1 C1.22 9.27, -0.59 52.14, -1.27 62.34" stroke="#000000" stroke-width="2" fill="none"></path></g></g><g stroke-linecap="round"><g transform="translate(560.008105979507 251.1911723236262) rotate(0 11.311412659848429 18.480901794970407)"><path d="M0.03 -0.85 C3.99 5.51, 19.84 31.51, 24.04 37.82 M-1.42 1.31 C2.36 7.36, 18.65 29.9, 23.05 36.04" stroke="#000000" stroke-width="2" fill="none"></path></g></g><g stroke-linecap="round"><g transform="translate(556.4596588696681 248.47103707516143) rotate(0 -9.840104744448354 17.214938821074583)"><path d="M-0.85 -0.08 C-4.12 5.85, -16.65 29.95, -19.98 35.6 M0.9 -1.17 C-2.44 4.45, -16.81 28.05, -20.58 34.04" stroke="#000000" stroke-width="2" fill="none"></path></g></g><g stroke-linecap="round"><g transform="translate(539.2236139024244 200.27555803000072) rotate(0 11.46308369042822 11.847551947611421)"><path d="M-0.08 0.66 C4 4.52, 20.71 18.63, 24.51 22.3 M-1.58 -0.04 C2.43 4.08, 19.66 19.71, 24.12 23.73" stroke="#000000" stroke-width="2" fill="none"></path></g></g><g stroke-linecap="round"><g transform="translate(564.1854565396488 222.38432647804657) rotate(0 16.559197803298957 -9.339892775979962)"><path d="M0.66 1.08 C6.4 -2.2, 28.02 -16.43, 33.57 -19.76 M-0.45 0.6 C5.19 -2.53, 26.9 -15.57, 32.52 -18.6" stroke="#000000" stroke-width="2" fill="none"></path></g></g><g stroke-linecap="round"><g transform="translate(529.1319632609843 143.0300560742574) rotate(0 40.127047507463885 7.413381774248734)"><path d="M1.08 -0.19 C14.05 2.39, 64.82 13.36, 77.73 16.16 M0.18 -1.34 C13.55 0.8, 67.12 11.48, 80.07 14.15" stroke="#000000" stroke-width="2" fill="none"></path></g></g><g stroke-linecap="round" transform="translate(554.452029257613 92.40181649037628) rotate(10.74366233694554 20.220940467371747 28.42051355797806)"><path d="M-0.97 -1.74 L41.4 -0.26 L39.2 55.65 L-1.29 58.51" stroke="none" stroke-width="0" fill="#fff"></path><path d="M-1.19 0.34 C14.56 1.18, 29.6 -1.07, 39.04 -0.04 M0.96 -0.04 C10.38 -0.6, 21.43 -0.83, 41.08 -0.25 M38.97 1.01 C42.88 19.04, 39.66 41.87, 40.74 57.94 M40.83 -0.7 C40.76 16.95, 40.11 33.81, 41.37 57.67 M42.08 58.6 C29 56.5, 18.15 57.27, -1.85 56.9 M40.38 56.22 C28.96 55.85, 18.78 57.11, -0.32 56.34 M-1.23 58.45 C1.52 42.94, -1.62 31.62, 1.91 -1.92 M-0.36 56.38 C0.79 35.22, 0.43 15.19, -0.13 0.4" stroke="#000000" stroke-width="2" fill="none"></path></g><g stroke-linecap="round"><g transform="translate(565.4133408659372 173.84854223630325) rotate(0 0.28070092636698973 5.991595367268147)" fill-rule="evenodd"><path d="M2 -1.38 L18.63 8.53 L24.98 8.95 L33.69 0.62 L31.18 13.34 L24.05 15.51 L0.61 8.48 L-18.95 12.67 L-26.47 3.42 L-31.88 -0.91 L-18.74 6.48 L-0.55 -0.61" stroke="none" stroke-width="0" fill="#000" fill-rule="evenodd"></path><path d="M-0.72 0.2 C2.43 1.59, 15.13 7.17, 19.97 8.15 C24.81 9.13, 26.15 7.02, 28.33 6.07 C30.5 5.13, 32.91 1.48, 33.02 2.47 C33.13 3.46, 31.05 10.04, 28.96 12.02 C26.88 13.99, 25.36 14.96, 20.5 14.31 C15.63 13.65, 6.62 8.53, -0.25 8.08 C-7.12 7.63, -15.33 13.21, -20.7 11.62 C-26.08 10.03, -32.51 -0.42, -32.51 -1.46 C-32.51 -2.49, -26.25 5.27, -20.68 5.43 C-15.11 5.59, -2.38 0.32, 0.92 -0.48 M1.11 -0.74 C4.02 0.32, 14.63 5.08, 19.09 6.38 C23.55 7.67, 25.55 7.5, 27.84 7.03 C30.13 6.57, 32.32 2.72, 32.82 3.56 C33.33 4.41, 33.22 10.4, 30.88 12.12 C28.54 13.84, 23.86 14.77, 18.77 13.87 C13.69 12.98, 7.15 7.1, 0.37 6.74 C-6.41 6.38, -16.69 13.23, -21.89 11.7 C-27.09 10.17, -31.14 -1.37, -30.83 -2.43 C-30.53 -3.49, -25.5 4.9, -20.07 5.35 C-14.65 5.79, -1.78 1.05, 1.72 0.25" stroke="#000000" stroke-width="1" fill="none"></path></g></g><g stroke-linecap="round" transform="translate(544.1602600101451 154.10039345692408) rotate(0 8.944018485776496 7.12221972701353)"><path d="M10.71 0.26 C12.34 0.59, 14.6 1.25, 15.93 2.68 C17.25 4.11, 18.8 7.24, 18.67 8.83 C18.53 10.43, 16.68 11.24, 15.12 12.25 C13.56 13.26, 11.3 14.69, 9.31 14.9 C7.32 15.11, 4.74 14.44, 3.19 13.53 C1.64 12.62, 0.27 11.09, 0.01 9.44 C-0.24 7.78, 0.91 4.98, 1.67 3.6 C2.43 2.21, 2.56 1.72, 4.57 1.12 C6.58 0.52, 12.3 -0.14, 13.75 -0.01 C15.2 0.12, 13.48 1.57, 13.28 1.88 M9.12 -1.04 C11.38 -1.31, 14.18 0.79, 15.66 2.08 C17.13 3.36, 17.54 5.06, 17.97 6.65 C18.41 8.25, 19.29 10.48, 18.28 11.66 C17.27 12.83, 13.75 13.14, 11.92 13.72 C10.08 14.3, 8.78 15.68, 7.25 15.15 C5.72 14.62, 4 12.1, 2.72 10.54 C1.45 8.99, -0.43 7.5, -0.38 5.82 C-0.33 4.15, 1.52 1.54, 3.02 0.49 C4.51 -0.56, 7.68 -0.4, 8.59 -0.47 C9.49 -0.53, 8.46 0.07, 8.45 0.11" stroke="#000000" stroke-width="1" fill="none"></path></g><g stroke-linecap="round" transform="translate(552.2774222520347 159.71841546104835) rotate(0 0.46664444273619665 0.6127654298555711)"><path d="M0.55 -0.42 C0.66 -0.14, 0.15 0.9, 0.38 1.07 C0.6 1.24, 1.82 0.65, 1.9 0.6 C1.97 0.55, 0.93 0.75, 0.81 0.77 C0.7 0.79, 1.19 0.71, 1.2 0.72 C1.21 0.74, 0.95 0.74, 0.86 0.87 C0.76 1.01, 0.82 1.76, 0.61 1.56 C0.41 1.35, -0.39 -0.28, -0.37 -0.36 C-0.34 -0.44, 0.7 1.1, 0.76 1.07 C0.82 1.04, -0.11 -0.42, -0.03 -0.55 C0.06 -0.69, 1.06 0.18, 1.26 0.28 M-0.79 1.34 C-0.82 1.23, 0.73 0.27, 1.18 0.32 C1.63 0.36, 1.75 1.66, 1.92 1.64 C2.08 1.62, 2.36 0.13, 2.18 0.19 C2 0.25, 0.9 1.62, 0.83 2.02 C0.76 2.41, 1.93 2.77, 1.75 2.54 C1.58 2.32, 0.15 0.94, -0.2 0.67 C-0.55 0.4, -0.17 0.95, -0.36 0.91 C-0.55 0.87, -1.37 0.57, -1.35 0.41 C-1.33 0.25, -0.48 0.03, -0.22 -0.04 C0.04 -0.11, 0.29 0.12, 0.22 -0.01" stroke="#000000" stroke-width="1" fill="none"></path></g><g stroke-linecap="round" transform="translate(576.830461668324 161.83481298416487) rotate(0 0.47135802296588736 0.801308639041892)"><path d="M-0.09 -0.43 C0.25 -0.32, 1.33 0.89, 1.49 1.03 C1.65 1.18, 0.99 0.34, 0.85 0.45 C0.72 0.56, 0.77 1.39, 0.67 1.67 C0.57 1.94, 0.33 2, 0.25 2.09 C0.17 2.18, 0.08 2.38, 0.19 2.19 C0.3 2.01, 1.06 1.11, 0.91 0.98 C0.76 0.84, -0.76 1.61, -0.73 1.4 C-0.7 1.18, 0.98 -0.19, 1.08 -0.33 C1.17 -0.48, -0.1 0.37, -0.16 0.53 C-0.23 0.68, 0.61 0.81, 0.7 0.58 M1.94 0.68 C1.99 1.09, 1.13 1.27, 1.19 1.53 C1.26 1.79, 2.48 2.26, 2.32 2.25 C2.17 2.24, 0.44 1.38, 0.29 1.47 C0.14 1.57, 1.23 2.92, 1.42 2.83 C1.62 2.75, 1.78 1.35, 1.46 0.96 C1.15 0.58, -0.24 0.84, -0.45 0.5 C-0.66 0.17, 0.06 -0.88, 0.2 -1.04 C0.34 -1.2, 0.32 -0.62, 0.38 -0.44 C0.44 -0.27, 0.53 0.1, 0.56 0.03 C0.59 -0.04, 0.72 -0.62, 0.58 -0.84" stroke="#000000" stroke-width="1" fill="none"></path></g><g transform="translate(51.54100095331455 97.83385966777001) rotate(0 81 18)"><text x="0" y="25" font-family="Virgil, Segoe UI Emoji" font-size="28px" fill="#fff" text-anchor="start" style="white-space: pre;" direction="ltr">Lorem ipsum</text></g><g stroke-linecap="round" transform="translate(29.15599559570296 393.35509899021065) rotate(0 344.3081277586008 124.02734310120283)"><path d="M0 0 L688.62 0 L688.62 248.05 L0 248.05" stroke="none" stroke-width="0" fill="#2f3e51"></path><path d="M0 0 C178.46 0, 356.93 0, 688.62 0 M0 0 C200.92 0, 401.85 0, 688.62 0 M688.62 0 C688.62 91.95, 688.62 183.89, 688.62 248.05 M688.62 0 C688.62 53.13, 688.62 106.26, 688.62 248.05 M688.62 248.05 C545.68 248.05, 402.75 248.05, 0 248.05 M688.62 248.05 C489.63 248.05, 290.64 248.05, 0 248.05 M0 248.05 C0 178.49, 0 108.93, 0 0 M0 248.05 C0 193.04, 0 138.03, 0 0" stroke="#fff" stroke-width="1" fill="none"></path></g><g transform="translate(66.98842231987237 419.16580050305333) rotate(0 314 99.99999999999997)"><text x="0" y="18" font-family="Virgil, Segoe UI Emoji" font-size="20px" fill="#fff" text-anchor="start" style="white-space: pre;" direction="ltr">Aliquam sed magna quam. Proin interdum id purus Bibendum </text><text x="0" y="43" font-family="Virgil, Segoe UI Emoji" font-size="20px" fill="#fff" text-anchor="start" style="white-space: pre;" direction="ltr">feugiat. Integer vitae est magna. Nunc fermentum vel elit </text><text x="0" y="68" font-family="Virgil, Segoe UI Emoji" font-size="20px" fill="#fff" text-anchor="start" style="white-space: pre;" direction="ltr">eu condimentum. Nulla tristique in augue et hendrerit. </text><text x="0" y="93" font-family="Virgil, Segoe UI Emoji" font-size="20px" fill="#fff" text-anchor="start" style="white-space: pre;" direction="ltr">Vestibulum tristique turpis id ante egestas, a vehicular libero </text><text x="0" y="118" font-family="Virgil, Segoe UI Emoji" font-size="20px" fill="#fff" text-anchor="start" style="white-space: pre;" direction="ltr">suscipit. In viverra tempus odio, sit amet pellentesque diam </text><text x="0" y="143" font-family="Virgil, Segoe UI Emoji" font-size="20px" fill="#fff" text-anchor="start" style="white-space: pre;" direction="ltr">rutrum in. Pellentesque at odio eget risus luctus efficitur. </text><text x="0" y="168" font-family="Virgil, Segoe UI Emoji" font-size="20px" fill="#fff" text-anchor="start" style="white-space: pre;" direction="ltr">Interdum et malesuada fames ac ante ipsum primis in faucibus.</text><text x="0" y="193" font-family="Virgil, Segoe UI Emoji" font-size="20px" fill="#fff" text-anchor="start" style="white-space: pre;" direction="ltr"> Integer congue aliquet efficitur.</text></g><g transform="translate(216.20756797198442 683.191952359357) rotate(0 246.4999999999999 181.99999999999994)"><text x="0" y="20" font-family="Virgil, Segoe UI Emoji" font-size="22.212694852152087px" fill="#000000" text-anchor="start" style="white-space: pre;" direction="ltr">Aliquam sed magna quam. Proin </text><text x="0" y="48" font-family="Virgil, Segoe UI Emoji" font-size="22.212694852152087px" fill="#000000" text-anchor="start" style="white-space: pre;" direction="ltr">interdum id purus Bibendum </text><text x="0" y="76" font-family="Virgil, Segoe UI Emoji" font-size="22.212694852152087px" fill="#000000" text-anchor="start" style="white-space: pre;" direction="ltr">feugiat. Integer vitae est magna. Nunc </text><text x="0" y="104" font-family="Virgil, Segoe UI Emoji" font-size="22.212694852152087px" fill="#000000" text-anchor="start" style="white-space: pre;" direction="ltr">fermentum vel elit eu condimentum. Nulla </text><text x="0" y="132" font-family="Virgil, Segoe UI Emoji" font-size="22.212694852152087px" fill="#000000" text-anchor="start" style="white-space: pre;" direction="ltr">tristique in augue et hendrerit. </text><text x="0" y="160" font-family="Virgil, Segoe UI Emoji" font-size="22.212694852152087px" fill="#000000" text-anchor="start" style="white-space: pre;" direction="ltr">Vestibulum tristique turpis id ante egestas, </text><text x="0" y="188" font-family="Virgil, Segoe UI Emoji" font-size="22.212694852152087px" fill="#000000" text-anchor="start" style="white-space: pre;" direction="ltr">a vehicular libero suscipit. In viverra tempus</text><text x="0" y="216" font-family="Virgil, Segoe UI Emoji" font-size="22.212694852152087px" fill="#000000" text-anchor="start" style="white-space: pre;" direction="ltr"> odio, sit amet pellentesque diam </text><text x="0" y="244" font-family="Virgil, Segoe UI Emoji" font-size="22.212694852152087px" fill="#000000" text-anchor="start" style="white-space: pre;" direction="ltr">rutrum in. Pellentesque at odio eget </text><text x="0" y="272" font-family="Virgil, Segoe UI Emoji" font-size="22.212694852152087px" fill="#000000" text-anchor="start" style="white-space: pre;" direction="ltr">risus luctus efficitur. </text><text x="0" y="300" font-family="Virgil, Segoe UI Emoji" font-size="22.212694852152087px" fill="#000000" text-anchor="start" style="white-space: pre;" direction="ltr">Interdum et malesuada fames ac ante </text><text x="0" y="328" font-family="Virgil, Segoe UI Emoji" font-size="22.212694852152087px" fill="#000000" text-anchor="start" style="white-space: pre;" direction="ltr">ipsum primis in faucibus.</text><text x="0" y="356" font-family="Virgil, Segoe UI Emoji" font-size="22.212694852152087px" fill="#000000" text-anchor="start" style="white-space: pre;" direction="ltr"> Integer congue aliquet efficitur.</text></g><g stroke-linecap="round" transform="translate(33.38637445119434 683.5693660115196) rotate(0 76.5762669220486 188.00625799587777)"><path d="M0 0 C51.36 0, 102.72 0, 153.15 0 M0 0 C36.49 0, 72.97 0, 153.15 0 M153.15 0 C153.15 80.56, 153.15 161.13, 153.15 376.01 M153.15 0 C153.15 89.87, 153.15 179.74, 153.15 376.01 M153.15 376.01 C116.46 376.01, 79.78 376.01, 0 376.01 M153.15 376.01 C94.81 376.01, 36.46 376.01, 0 376.01 M0 376.01 C0 270.38, 0 164.74, 0 0 M0 376.01 C0 270.24, 0 164.47, 0 0" stroke="#000000" stroke-width="1" fill="none"></path></g><g stroke-linecap="round" transform="translate(80.47143992280007 753.2740987152132) rotate(202.77540904823977 38.88275908884566 35.787867692130646)"><path d="M37.88 -0.61 C45.21 -1.4, 54.88 2.59, 61.02 6.53 C67.15 10.46, 72.01 16.51, 74.66 23.01 C77.31 29.52, 79 38.67, 76.91 45.55 C74.82 52.44, 68.34 59.98, 62.13 64.31 C55.92 68.65, 47.26 71.33, 39.66 71.54 C32.06 71.75, 22.67 69.61, 16.52 65.6 C10.37 61.58, 5.4 54.19, 2.76 47.47 C0.11 40.74, -1.43 31.99, 0.64 25.23 C2.7 18.48, 7.7 10.92, 15.16 6.93 C22.62 2.94, 38.81 1.94, 45.4 1.3 C51.98 0.66, 54.62 2.66, 54.68 3.06 M40.88 0.94 C48.12 0.81, 56.92 3.29, 62.84 7.89 C68.75 12.48, 74.51 21.76, 76.4 28.49 C78.28 35.23, 77.21 41.88, 74.13 48.32 C71.05 54.76, 64.48 63.51, 57.9 67.14 C51.31 70.77, 42.09 70.6, 34.64 70.09 C27.19 69.59, 18.98 68.53, 13.18 64.1 C7.38 59.68, 1.48 50.4, -0.16 43.54 C-1.81 36.67, -0.03 29.32, 3.31 22.92 C6.64 16.53, 13.46 8.94, 19.84 5.15 C26.22 1.35, 37.95 0.89, 41.6 0.15 C45.25 -0.6, 41.82 0.12, 41.75 0.67" stroke="#000000" stroke-width="2" fill="none"></path></g><g stroke-linecap="round"><g transform="translate(116.21662035573036 827.5817558508255) rotate(0 -2.3658785427859357 43.29625670734475)"><path d="M0.56 -0.09 C-0.12 14.37, -3.52 73.42, -4.16 87.77 M-0.61 -1.18 C-1.47 13.48, -4.76 71.49, -5.29 86.18" stroke="#000000" stroke-width="2" fill="none"></path></g></g><g stroke-linecap="round"><g transform="translate(112.95863172907457 916.4715298344184) rotate(0 16.877579709520205 25.938700024306172)"><path d="M-0.09 -0.34 C5.63 8.47, 29.74 44.48, 35.35 53.45 M-1.6 -1.57 C3.96 6.84, 28.65 42.77, 34.93 51.6" stroke="#000000" stroke-width="2" fill="none"></path></g></g><g stroke-linecap="round"><g transform="translate(107.57572067607225 912.1252950681131) rotate(0 -13.927832049786502 25.01165312351702)"><path d="M-0.34 1 C-5.25 9.08, -24.11 40.29, -28.86 48.4 M1.68 0.48 C-3.39 8.71, -24.37 41.68, -29.53 49.54" stroke="#000000" stroke-width="2" fill="none"></path></g></g><g stroke-linecap="round"><g transform="translate(81.44132905846209 879.1419622108345) rotate(0 16.382586058560946 -12.248322659520966)"><path d="M1 0.53 C6.08 -3.28, 25.27 -19, 30.38 -23.2 M0.07 -0.24 C5.54 -4.37, 27.51 -21.1, 32.7 -25.03" stroke="#000000" stroke-width="2" fill="none"></path></g></g><g stroke-linecap="round"><g transform="translate(115.61050649162962 855.7560617921748) rotate(0 16.00622095006429 11.369260036516891)"><path d="M0.53 -0.76 C6.03 2.99, 27.55 19.64, 32.66 23.5 M-0.65 1.46 C4.77 5.37, 26.29 18, 32.01 21.66" stroke="#000000" stroke-width="2" fill="none"></path></g></g><g stroke-linecap="round"><g transform="translate(140.8534039273752 760.321703412364) rotate(0 -31.934475158824398 23.72470452802537)"><path d="M-0.76 0.56 C-3.07 3.8, -7.19 14.86, -12.88 19.99 C-18.57 25.12, -28.02 29.59, -34.9 31.35 C-41.77 33.11, -49.34 27.84, -54.14 30.55 C-58.93 33.27, -62.01 44.8, -63.68 47.64 M1.04 -0.19 C-1.47 3.13, -7.38 16.14, -13.55 21.07 C-19.71 26, -29.22 27.72, -35.95 29.4 C-42.68 31.09, -49.07 28.14, -53.9 31.17 C-58.73 34.21, -63.44 44.5, -64.91 47.61" stroke="#000000" stroke-width="1" fill="none"></path></g></g><g stroke-linecap="round"><g transform="translate(137.05155713701492 759.4660588736182) rotate(0 -28.679328773215502 16.117307963598364)"><path d="M0.56 0.55 C-2.6 3.7, -11.75 13.59, -18.41 18.17 C-25.07 22.76, -32.88 25.89, -39.42 28.05 C-45.97 30.2, -54.66 30.67, -57.68 31.1 M-0.61 -0.21 C-3.43 3.17, -9.63 14.5, -16.16 19.43 C-22.69 24.35, -32.83 27.18, -39.79 29.35 C-46.75 31.52, -55.25 32.17, -57.92 32.45" stroke="#000000" stroke-width="1" fill="none"></path></g></g><g stroke-linecap="round"><g transform="translate(133.35920533806166 755.9041117941646) rotate(0 -25.26748097187442 11.979275595356683)"><path d="M0.55 -0.88 C-4.24 0.84, -20.98 6.72, -29.46 10.87 C-37.93 15.02, -46.91 21.79, -50.31 24 M-0.62 1.28 C-5.55 2.61, -22.28 5.22, -30.69 9.14 C-39.1 13.07, -47.97 22.23, -51.08 24.84" stroke="#000000" stroke-width="1" fill="none"></path></g></g><g stroke-linecap="round"><g transform="translate(135.94164884976203 758.8065855988401) rotate(0 -26.642930217306116 13.787905516049193)"><path d="M-0.88 -0.54 C-4.21 1.7, -12.59 10.08, -19.44 14.04 C-26.3 17.99, -36.25 21.01, -42 23.18 C-47.76 25.34, -51.97 26.36, -53.97 27.02 M0.86 1.78 C-2.61 4.19, -13.26 12.35, -20 15.56 C-26.74 18.78, -33.9 18.98, -39.59 21.07 C-45.28 23.17, -52.04 27.03, -54.15 28.12" stroke="#000000" stroke-width="1" fill="none"></path></g></g><g stroke-linecap="round"><g transform="translate(133.94609507200062 757.3111223397494) rotate(0 -25.000853553580896 12.318176033428415)"><path d="M-0.54 0.75 C-4.66 2.92, -15.74 8.29, -24.13 12.11 C-32.51 15.92, -46.31 21.72, -50.84 23.64 M1.37 0.1 C-2.95 2.47, -16.29 9.09, -25.08 13.16 C-33.87 17.24, -47.04 22.68, -51.37 24.54" stroke="#000000" stroke-width="1" fill="none"></path></g></g><g stroke-linecap="round"><g transform="translate(128.38069320271302 754.7295079703812) rotate(0 -21.756955206369753 10.624415465623429)"><path d="M0.75 -0.02 C-3.83 1.46, -20.89 4.83, -28.39 8.34 C-35.9 11.84, -41.62 18.88, -44.27 21.02 M-0.31 -1.08 C-4.45 0.09, -19.25 2.55, -26.16 6.45 C-33.08 10.35, -38.74 19.68, -41.8 22.33" stroke="#000000" stroke-width="1" fill="none"></path></g></g><g stroke-linecap="round"><g stroke-opacity="0.7" fill-opacity="0.7" transform="translate(80.21338274098844 790.3563744492161) rotate(0 -8.150810519515971 -9.542039786690566)"><path d="M-0.02 -0.92 C-1.81 -1.38, -8.23 -0.5, -11.25 -1.99 C-14.28 -3.49, -17.58 -7.26, -18.16 -9.91 C-18.74 -12.55, -17.16 -16.22, -14.73 -17.85 C-12.3 -19.48, -6.32 -21.27, -3.57 -19.67 C-0.83 -18.06, 0.85 -9.89, 1.75 -8.22 M-1.49 1.21 C-3.35 0.82, -9.06 0.82, -11.96 -0.88 C-14.87 -2.59, -18.52 -6.42, -18.93 -9.03 C-19.34 -11.63, -17.28 -14.71, -14.43 -16.51 C-11.57 -18.31, -4.64 -21.05, -1.79 -19.81 C1.06 -18.57, 2.05 -11.06, 2.68 -9.07" stroke="#000000" stroke-width="1" fill="none"></path></g></g><g stroke-linecap="round"><g stroke-opacity="0.7" fill-opacity="0.7" transform="translate(60.03364598686176 777.208948846251) rotate(0 10.249074983874834 5.755257870982064)"><path d="M-0.92 0.45 C0.3 1.7, 4.75 5.8, 8.06 7.47 C11.38 9.14, 16.93 10.13, 18.96 10.49 M0.8 -0.35 C2.33 1.1, 6.91 6.96, 10.35 9 C13.79 11.04, 19.69 11.65, 21.42 11.86" stroke="#000000" stroke-width="1" fill="none"></path></g></g><g stroke-linecap="round"><g stroke-opacity="0.7" fill-opacity="0.7" transform="translate(62.33452924814674 774.4639689634836) rotate(0 7.618628973406089 4.575750410524847)"><path d="M0.45 -0.81 C2.27 -0.57, 8.31 -1.3, 10.9 0.49 C13.49 2.29, 15.3 8.63, 16.01 9.96 M-0.77 1.38 C0.89 1.83, 7.26 0.51, 9.94 1.59 C12.62 2.67, 14.46 6.61, 15.3 7.86" stroke="#000000" stroke-width="1" fill="none"></path></g></g><g stroke-linecap="round"><g stroke-opacity="0.7" fill-opacity="0.7" transform="translate(62.34012375262637 776.8326016423847) rotate(0 7.769801961201551 4.291826807852544)"><path d="M-0.81 -0.01 C0.39 0.69, 3.44 3.19, 6.3 4.65 C9.16 6.11, 14.92 8.08, 16.35 8.74 M0.97 -1.07 C2.63 -0.19, 6.1 4.46, 8.57 6.25 C11.05 8.03, 14.82 9.16, 15.82 9.65" stroke="#000000" stroke-width="1" fill="none"></path></g></g><g stroke-linecap="round"><g stroke-opacity="0.7" fill-opacity="0.7" transform="translate(155.98997473832037 972.4272939832168) rotate(0 -7.271789754911538 -52.90618221462876)"><path d="M-0.01 -0.83 C0.25 -14.25, 2.72 -63.87, 2.03 -81.35 C1.34 -98.83, -1.47 -102.37, -4.17 -105.72 C-6.88 -109.06, -12.13 -106.16, -14.22 -101.42 C-16.3 -96.68, -16.55 -81.54, -16.69 -77.29 M-1.48 1.35 C-1.41 -12.37, 1.17 -65.52, 1.14 -83.24 C1.1 -100.95, 0.92 -102.12, -1.68 -104.93 C-4.28 -107.75, -12.24 -104.71, -14.46 -100.13 C-16.67 -95.55, -14.54 -81.34, -14.95 -77.45" stroke="#000000" stroke-width="2" fill="none"></path></g></g><g transform="translate(17.55478740259673 1096.6867629713151) rotate(0 343.4999999999999 37.5)"><text x="0" y="18" font-family="Virgil, Segoe UI Emoji" font-size="20px" fill="#000000" text-anchor="start" style="white-space: pre;" direction="ltr">Sed ac magna tortor. Donec risus odio, rutrum quis tellus volutpat, </text><text x="0" y="43" font-family="Virgil, Segoe UI Emoji" font-size="20px" fill="#000000" text-anchor="start" style="white-space: pre;" direction="ltr">ornare vulputate mi. Donec sed ullamcorper ex. Ut sit amet cursus </text><text x="0" y="68" font-family="Virgil, Segoe UI Emoji" font-size="20px" fill="#000000" text-anchor="start" style="white-space: pre;" direction="ltr">felis. Fusce tincidunt congue</text></g></svg>