<svg version="1.1" xmlns="http://www.w3.org/2000/svg" viewBox="0 0 831.1152550975041 98.46170185835457" width="1662.2305101950083" height="196.92340371670915">
  <!-- svg-source:excalidraw -->
  
  <defs>
    <style>
      @font-face {
        font-family: "Virgil";
        src: url("https://excalidraw.com/Virgil.woff2");
      }
      @font-face {
        font-family: "Cascadia";
        src: url("https://excalidraw.com/Cascadia.woff2");
      }
    </style>
  </defs>
  <rect x="0" y="0" width="831.1152550975041" height="98.46170185835457" fill="#ffffff"></rect><g stroke-linecap="round" transform="translate(10 10) rotate(0 405.55762754875207 38.08938629687904)"><path d="M-1.02 -0.44 C248.21 2.29, 495.57 1.62, 809.84 -0.02 M-0.09 0.45 C273.72 1.74, 545.91 1.47, 810.8 -0.3 M810.06 -2.52 C815.04 28.21, 816.01 59.43, 815.04 79.64 M809.81 -0.04 C809.79 16.71, 811.85 29.75, 811.44 76.06 M811.45 77.67 C600.54 74, 389.07 74.16, 0.32 76.6 M811.26 75.72 C598.76 81.64, 385.92 81.87, 0.42 75.56 M-2.05 75.97 C-2.11 51.1, 0.78 24.19, 1.16 3.31 M-1.07 74.49 C1.68 50.34, -0.1 18.6, 0.05 1.42" stroke="#000000" stroke-width="1" fill="none"></path></g><g transform="translate(31.351473614149143 26.242592172705486) rotate(0 67.5 23)"><text x="0" y="32" font-family="Virgil, Segoe UI Emoji" font-size="36px" fill="#000000" text-anchor="start" style="white-space: pre;" direction="ltr">Timeline</text></g><g stroke-linecap="round"><g transform="translate(206.83229075134784 10.507171491597603) rotate(0 -0.5835206027469155 38.92360097944126)"><path d="M-1.75 1.81 C-2.72 14.28, -3.9 62.42, -3.62 74.56 M2.49 0.33 C2.18 13.18, 2.11 64.72, 1.48 77.52" stroke="#000000" stroke-width="1" fill="none"></path></g></g><g transform="translate(246.94588468969107 26.136079465433113) rotate(0 63.5 23)"><text x="0" y="32" font-family="Virgil, Segoe UI Emoji" font-size="36px" fill="#000000" text-anchor="start" style="white-space: pre;" direction="ltr">Stories</text></g><g stroke-linecap="round"><g transform="translate(440.542652940298 13.705085071340761) rotate(0 0.312851606834613 36.21878111928573)"><path d="M-1.8 -2.32 C-1.38 9.8, 2.11 59.19, 2.29 70.93 M2.42 2.59 C2.57 15.39, 0.13 63.54, 0.55 74.76" stroke="#000000" stroke-width="1" fill="none"></path></g></g><g transform="translate(495.286597271495 29.033797767807982) rotate(0 36 23)"><text x="0" y="32" font-family="Virgil, Segoe UI Emoji" font-size="36px" fill="#000000" text-anchor="start" style="white-space: pre;" direction="ltr">FAQ</text></g><g stroke-linecap="round"><g transform="translate(632.634275425211 12.716942283336664) rotate(0 2.333111124739446 34.79001745074858)"><path d="M2.65 0.6 C3.06 12.66, 3.78 59.53, 4.03 71.12 M0.64 -1.54 C0.78 9.73, 2.71 53.99, 3.23 66.42" stroke="#000000" stroke-width="1" fill="none"></path></g></g></svg>